<svg id="SvgjsSvg1006" width="690" height="650" xmlns="http://www.w3.org/2000/svg" version="1.1" xmlns:xlink="http://www.w3.org/1999/xlink" xmlns:svgjs="http://svgjs.com/svgjs"><defs id="SvgjsDefs1007"><marker id="SvgjsMarker1087" markerWidth="16" markerHeight="12" refX="16" refY="6" viewBox="0 0 16 12" orient="auto" markerUnits="userSpaceOnUse"><path id="SvgjsPath1088" d="M0,2 L14,6 L0,11 L0,2" fill="#323232" stroke="#323232" stroke-width="2"></path></marker><marker id="SvgjsMarker1101" markerWidth="16" markerHeight="12" refX="16" refY="6" viewBox="0 0 16 12" orient="auto" markerUnits="userSpaceOnUse"><path id="SvgjsPath1102" d="M0,2 L14,6 L0,11 L0,2" fill="#323232" stroke="#323232" stroke-width="2"></path></marker><marker id="SvgjsMarker1115" markerWidth="16" markerHeight="12" refX="16" refY="6" viewBox="0 0 16 12" orient="auto" markerUnits="userSpaceOnUse"><path id="SvgjsPath1116" d="M0,2 L14,6 L0,11 L0,2" fill="#323232" stroke="#323232" stroke-width="2"></path></marker><marker id="SvgjsMarker1131" markerWidth="16" markerHeight="12" refX="16" refY="6" viewBox="0 0 16 12" orient="auto" markerUnits="userSpaceOnUse"><path id="SvgjsPath1132" d="M0,2 L14,6 L0,11 L0,2" fill="#323232" stroke="#323232" stroke-width="2"></path></marker><marker id="SvgjsMarker1157" markerWidth="16" markerHeight="12" refX="16" refY="6" viewBox="0 0 16 12" orient="auto" markerUnits="userSpaceOnUse"><path id="SvgjsPath1158" d="M0,2 L14,6 L0,11 L0,2" fill="#323232" stroke="#323232" stroke-width="2"></path></marker><marker id="SvgjsMarker1169" markerWidth="16" markerHeight="12" refX="16" refY="6" viewBox="0 0 16 12" orient="auto" markerUnits="userSpaceOnUse"><path id="SvgjsPath1170" d="M0,2 L14,6 L0,11 L0,2" fill="#323232" stroke="#323232" stroke-width="2"></path></marker><marker id="SvgjsMarker1185" markerWidth="16" markerHeight="12" refX="16" refY="6" viewBox="0 0 16 12" orient="auto" markerUnits="userSpaceOnUse"><path id="SvgjsPath1186" d="M0,2 L14,6 L0,11 L0,2" fill="#323232" stroke="#323232" stroke-width="2"></path></marker></defs><g id="SvgjsG1008" transform="translate(25,25)"><path id="SvgjsPath1009" d="M 0 0L 640 0L 640 200L 0 200Z" stroke="#323232" stroke-width="2" fill="none"></path><path id="SvgjsPath1010" d="M 0 0L 40 0L 40 200L 0 200Z" stroke="#323232" stroke-width="2" fill-opacity="1" fill="#ffffff"></path><g id="SvgjsG1011"><text id="SvgjsText1012" font-family="微软雅黑" text-anchor="middle" font-size="16px" width="0" fill="#323232" font-weight="400" align="middle" anchor="middle" family="微软雅黑" size="16px" weight="400" font-style="" y="7.6" transform="rotate(270)"></text></g></g><g id="SvgjsG1013" transform="translate(30,56.5)"><path id="SvgjsPath1014" d="M 0 0L 30 0L 30 137L 0 137Z" stroke="none" fill="none"></path><g id="SvgjsG1015"><text id="SvgjsText1016" font-family="微软雅黑" text-anchor="middle" font-size="27px" width="27" fill="#323232" font-weight="400" align="middle" anchor="middle" family="微软雅黑" size="27px" weight="400" font-style="" y="-3.55" transform="rotate(0)"><tspan id="SvgjsTspan1017" dy="33" x="15"><tspan id="SvgjsTspan1018" style="text-decoration:;">开</tspan></tspan><tspan id="SvgjsTspan1019" dy="33" x="15"><tspan id="SvgjsTspan1020" style="text-decoration:;">设</tspan></tspan><tspan id="SvgjsTspan1021" dy="33" x="15"><tspan id="SvgjsTspan1022" style="text-decoration:;">商</tspan></tspan><tspan id="SvgjsTspan1023" dy="33" x="15"><tspan id="SvgjsTspan1024" style="text-decoration:;">铺</tspan></tspan></text></g></g><g id="SvgjsG1025" transform="translate(92,70.25)"><path id="SvgjsPath1026" d="M 36.5 0L 117.5 0C 166.16666666666666 0 166.16666666666666 109.5 117.5 109.5L 36.5 109.5C -12.166666666666666 109.5 -12.166666666666666 0 36.5 0Z" stroke="#323232" stroke-width="2" fill-opacity="1" fill="#ffffff"></path><g id="SvgjsG1027"><text id="SvgjsText1028" font-family="微软雅黑" text-anchor="middle" font-size="23px" width="115" fill="#323232" font-weight="400" align="middle" anchor="middle" family="微软雅黑" size="23px" weight="400" font-style="" y="22.3" transform="rotate(0)"><tspan id="SvgjsTspan1029" dy="28" x="77"><tspan id="SvgjsTspan1030" style="text-decoration:;">系统或用户</tspan></tspan><tspan id="SvgjsTspan1031" dy="28" x="77"><tspan id="SvgjsTspan1032" style="text-decoration:;">开设商铺</tspan></tspan></text></g></g><g id="SvgjsG1033" transform="translate(25,225)"><path id="SvgjsPath1034" d="M 0 0L 640 0L 640 200L 0 200Z" stroke="#323232" stroke-width="2" fill="none"></path><path id="SvgjsPath1035" d="M 0 0L 40 0L 40 200L 0 200Z" stroke="#323232" stroke-width="2" fill-opacity="1" fill="#ffffff"></path><g id="SvgjsG1036"><text id="SvgjsText1037" font-family="微软雅黑" text-anchor="middle" font-size="16px" width="0" fill="#323232" font-weight="400" align="middle" anchor="middle" family="微软雅黑" size="16px" weight="400" font-style="" y="7.6" transform="rotate(270)"></text></g></g><g id="SvgjsG1038" transform="translate(30,256.5)"><path id="SvgjsPath1039" d="M 0 0L 30 0L 30 137L 0 137Z" stroke="none" fill="none"></path><g id="SvgjsG1040"><text id="SvgjsText1041" font-family="微软雅黑" text-anchor="middle" font-size="27px" width="27" fill="#323232" font-weight="400" align="middle" anchor="middle" family="微软雅黑" size="27px" weight="400" font-style="" y="-3.55" transform="rotate(0)"><tspan id="SvgjsTspan1042" dy="33" x="15"><tspan id="SvgjsTspan1043" style="text-decoration:;">交</tspan></tspan><tspan id="SvgjsTspan1044" dy="33" x="15"><tspan id="SvgjsTspan1045" style="text-decoration:;">易</tspan></tspan><tspan id="SvgjsTspan1046" dy="33" x="15"><tspan id="SvgjsTspan1047" style="text-decoration:;">卡</tspan></tspan><tspan id="SvgjsTspan1048" dy="33" x="15"><tspan id="SvgjsTspan1049" style="text-decoration:;">牌</tspan></tspan></text></g></g><g id="SvgjsG1050" transform="translate(78,267)"><path id="SvgjsPath1051" d="M 38.666666666666664 0L 143.33333333333334 0C 194.88888888888889 0 194.88888888888889 116 143.33333333333334 116L 38.666666666666664 116C -12.888888888888888 116 -12.888888888888888 0 38.666666666666664 0Z" stroke="#323232" stroke-width="2" fill-opacity="1" fill="#ffffff"></path><g id="SvgjsG1052"><text id="SvgjsText1053" font-family="微软雅黑" text-anchor="middle" font-size="23px" width="161" fill="#323232" font-weight="400" align="middle" anchor="middle" family="微软雅黑" size="23px" weight="400" font-style="" y="25.55" transform="rotate(0)"><tspan id="SvgjsTspan1054" dy="28" x="91"><tspan id="SvgjsTspan1055" style="text-decoration:;">用户向商铺购买</tspan></tspan><tspan id="SvgjsTspan1056" dy="28" x="91"><tspan id="SvgjsTspan1057" style="text-decoration:;">卡牌</tspan></tspan></text></g></g><g id="SvgjsG1058" transform="translate(25,425)"><path id="SvgjsPath1059" d="M 0 0L 640 0L 640 200L 0 200Z" stroke="#323232" stroke-width="2" fill="none"></path><path id="SvgjsPath1060" d="M 0 0L 40 0L 40 200L 0 200Z" stroke="#323232" stroke-width="2" fill-opacity="1" fill="#ffffff"></path><g id="SvgjsG1061"><text id="SvgjsText1062" font-family="微软雅黑" text-anchor="middle" font-size="16px" width="0" fill="#323232" font-weight="400" align="middle" anchor="middle" family="微软雅黑" size="16px" weight="400" font-style="" y="7.6" transform="rotate(270)"></text></g></g><g id="SvgjsG1063" transform="translate(30,456.5)"><path id="SvgjsPath1064" d="M 0 0L 30 0L 30 137L 0 137Z" stroke="none" fill="none"></path><g id="SvgjsG1065"><text id="SvgjsText1066" font-family="微软雅黑" text-anchor="middle" font-size="27px" width="27" fill="#323232" font-weight="400" align="middle" anchor="middle" family="微软雅黑" size="27px" weight="400" font-style="" y="-20.55" transform="rotate(0)"><tspan id="SvgjsTspan1067" dy="33" x="15"><tspan id="SvgjsTspan1068" style="text-decoration:;">交</tspan></tspan><tspan id="SvgjsTspan1069" dy="33" x="15"><tspan id="SvgjsTspan1070" style="text-decoration:;">易</tspan></tspan><tspan id="SvgjsTspan1071" dy="33" x="15"><tspan id="SvgjsTspan1072" style="text-decoration:;">优</tspan></tspan><tspan id="SvgjsTspan1073" dy="33" x="15"><tspan id="SvgjsTspan1074" style="text-decoration:;">惠</tspan></tspan><tspan id="SvgjsTspan1075" dy="33" x="15"><tspan id="SvgjsTspan1076" style="text-decoration:;">券</tspan></tspan></text></g></g><g id="SvgjsG1077" transform="translate(326,79)"><path id="SvgjsPath1078" d="M 0 0L 188 0L 188 92L 0 92Z" stroke="#323232" stroke-width="2" fill-opacity="1" fill="#ffffff"></path><g id="SvgjsG1079"><text id="SvgjsText1080" font-family="微软雅黑" text-anchor="middle" font-size="23px" width="161" fill="#323232" font-weight="400" align="middle" anchor="middle" family="微软雅黑" size="23px" weight="400" font-style="" y="13.55" transform="rotate(0)"><tspan id="SvgjsTspan1081" dy="28" x="94"><tspan id="SvgjsTspan1082" style="text-decoration:;">记录指定地点的</tspan></tspan><tspan id="SvgjsTspan1083" dy="28" x="94"><tspan id="SvgjsTspan1084" style="text-decoration:;">商铺信息和内容</tspan></tspan></text></g></g><g id="SvgjsG1085"><path id="SvgjsPath1086" d="M246 125L286 125L286 125L326 125" stroke="#323232" stroke-width="2" fill="none" marker-end="url(#SvgjsMarker1087)"></path></g><g id="SvgjsG1089" transform="translate(289,269.25)"><path id="SvgjsPath1090" d="M 0 55.75L 82 0L 164 55.75L 82 111.5L 0 55.75Z" stroke="#323232" stroke-width="2" fill-opacity="1" fill="#ffffff"></path><g id="SvgjsG1091"><text id="SvgjsText1092" font-family="微软雅黑" text-anchor="middle" font-size="20px" width="140" fill="#323232" font-weight="400" align="middle" anchor="middle" family="微软雅黑" size="20px" weight="400" font-style="" y="15.25" transform="rotate(0)"><tspan id="SvgjsTspan1093" dy="25" x="82"><tspan id="SvgjsTspan1094" style="text-decoration:;">确认用户和商家</tspan></tspan><tspan id="SvgjsTspan1095" dy="25" x="82"><tspan id="SvgjsTspan1096" style="text-decoration:;">是否有足够的碳</tspan></tspan><tspan id="SvgjsTspan1097" dy="25" x="82"><tspan id="SvgjsTspan1098" style="text-decoration:;">积分和商品</tspan></tspan></text></g></g><g id="SvgjsG1099"><path id="SvgjsPath1100" d="M260 325L274.5 325L274.5 325L289 325" stroke="#323232" stroke-width="2" fill="none" marker-end="url(#SvgjsMarker1101)"></path></g><g id="SvgjsG1103" transform="translate(487,233)"><path id="SvgjsPath1104" d="M 0 0L 164 0L 164 87L 0 87Z" stroke="#323232" stroke-width="2" fill-opacity="1" fill="#ffffff"></path><g id="SvgjsG1105"><text id="SvgjsText1106" font-family="微软雅黑" text-anchor="middle" font-size="23px" width="138" fill="#323232" font-weight="400" align="middle" anchor="middle" family="微软雅黑" size="23px" weight="400" font-style="" y="-3.4499999999999997" transform="rotate(0)"><tspan id="SvgjsTspan1107" dy="28" x="82"><tspan id="SvgjsTspan1108" style="text-decoration:;">调用双方碳积</tspan></tspan><tspan id="SvgjsTspan1109" dy="28" x="82"><tspan id="SvgjsTspan1110" style="text-decoration:;">分合约和卡牌</tspan></tspan><tspan id="SvgjsTspan1111" dy="28" x="82"><tspan id="SvgjsTspan1112" style="text-decoration:;">合约达成交易</tspan></tspan></text></g></g><g id="SvgjsG1113"><path id="SvgjsPath1114" d="M371 269.25L371 239.25L470 239.25L470 276.5L487 276.5" stroke="#323232" stroke-width="2" fill="none" marker-end="url(#SvgjsMarker1115)"></path><rect id="SvgjsRect1117" width="13" height="16" x="426.125" y="231.25" fill="#ffffff"></rect><text id="SvgjsText1118" font-family="微软雅黑" text-anchor="middle" font-size="13px" width="13" fill="#323232" font-weight="400" align="top" anchor="middle" family="微软雅黑" size="13px" weight="400" font-style="" y="229.3" transform="rotate(0)"><tspan id="SvgjsTspan1119" dy="16" x="432.625"><tspan id="SvgjsTspan1120" style="text-decoration:;">是</tspan></tspan></text></g><g id="SvgjsG1121" transform="translate(487,361)"><path id="SvgjsPath1122" d="M 0 0L 164 0L 164 57L 0 57Z" stroke="#323232" stroke-width="2" fill-opacity="1" fill="#ffffff"></path><g id="SvgjsG1123"><text id="SvgjsText1124" font-family="微软雅黑" text-anchor="middle" font-size="23px" width="138" fill="#323232" font-weight="400" align="middle" anchor="middle" family="微软雅黑" size="23px" weight="400" font-style="" y="-3.9499999999999997" transform="rotate(0)"><tspan id="SvgjsTspan1125" dy="28" x="82"><tspan id="SvgjsTspan1126" style="text-decoration:;">报错，不进行</tspan></tspan><tspan id="SvgjsTspan1127" dy="28" x="82"><tspan id="SvgjsTspan1128" style="text-decoration:;">交易</tspan></tspan></text></g></g><g id="SvgjsG1129"><path id="SvgjsPath1130" d="M371 380.75L371 389.5L487 389.5" stroke="#323232" stroke-width="2" fill="none" marker-end="url(#SvgjsMarker1131)"></path><rect id="SvgjsRect1133" width="13" height="16" x="418.125" y="381.5" fill="#ffffff"></rect><text id="SvgjsText1134" font-family="微软雅黑" text-anchor="middle" font-size="13px" width="13" fill="#323232" font-weight="400" align="top" anchor="middle" family="微软雅黑" size="13px" weight="400" font-style="" y="379.55" transform="rotate(0)"><tspan id="SvgjsTspan1135" dy="16" x="424.625"><tspan id="SvgjsTspan1136" style="text-decoration:;">否</tspan></tspan></text></g><g id="SvgjsG1137" transform="translate(78,466.5)"><path id="SvgjsPath1138" d="M 38.666666666666664 0L 143.33333333333334 0C 194.88888888888889 0 194.88888888888889 116 143.33333333333334 116L 38.666666666666664 116C -12.888888888888888 116 -12.888888888888888 0 38.666666666666664 0Z" stroke="#323232" stroke-width="2" fill-opacity="1" fill="#ffffff"></path><g id="SvgjsG1139"><text id="SvgjsText1140" font-family="微软雅黑" text-anchor="middle" font-size="23px" width="161" fill="#323232" font-weight="400" align="middle" anchor="middle" family="微软雅黑" size="23px" weight="400" font-style="" y="25.55" transform="rotate(0)"><tspan id="SvgjsTspan1141" dy="28" x="91"><tspan id="SvgjsTspan1142" style="text-decoration:;">用户向商铺购买</tspan></tspan><tspan id="SvgjsTspan1143" dy="28" x="91"><tspan id="SvgjsTspan1144" style="text-decoration:;">优惠券</tspan></tspan></text></g></g><g id="SvgjsG1145" transform="translate(289,468.75)"><path id="SvgjsPath1146" d="M 0 55.75L 82 0L 164 55.75L 82 111.5L 0 55.75Z" stroke="#323232" stroke-width="2" fill-opacity="1" fill="#ffffff"></path><g id="SvgjsG1147"><text id="SvgjsText1148" font-family="微软雅黑" text-anchor="middle" font-size="20px" width="140" fill="#323232" font-weight="400" align="middle" anchor="middle" family="微软雅黑" size="20px" weight="400" font-style="" y="15.25" transform="rotate(0)"><tspan id="SvgjsTspan1149" dy="25" x="82"><tspan id="SvgjsTspan1150" style="text-decoration:;">确认用户和商家</tspan></tspan><tspan id="SvgjsTspan1151" dy="25" x="82"><tspan id="SvgjsTspan1152" style="text-decoration:;">是否有足够的碳</tspan></tspan><tspan id="SvgjsTspan1153" dy="25" x="82"><tspan id="SvgjsTspan1154" style="text-decoration:;">积分和商品</tspan></tspan></text></g></g><g id="SvgjsG1155"><path id="SvgjsPath1156" d="M260 524.5L274.5 524.5L274.5 524.5L289 524.5" stroke="#323232" stroke-width="2" fill="none" marker-end="url(#SvgjsMarker1157)"></path></g><g id="SvgjsG1159" transform="translate(487,432.5)"><path id="SvgjsPath1160" d="M 0 0L 164 0L 164 59L 0 59Z" stroke="#323232" stroke-width="2" fill-opacity="1" fill="#ffffff"></path><g id="SvgjsG1161"><text id="SvgjsText1162" font-family="微软雅黑" text-anchor="middle" font-size="23px" width="138" fill="#323232" font-weight="400" align="middle" anchor="middle" family="微软雅黑" size="23px" weight="400" font-style="" y="-2.9499999999999997" transform="rotate(0)"><tspan id="SvgjsTspan1163" dy="28" x="82"><tspan id="SvgjsTspan1164" style="text-decoration:;">调用双方各合</tspan></tspan><tspan id="SvgjsTspan1165" dy="28" x="82"><tspan id="SvgjsTspan1166" style="text-decoration:;">约达成交易</tspan></tspan></text></g></g><g id="SvgjsG1167"><path id="SvgjsPath1168" d="M371 468.75L371 462L487 462" stroke="#323232" stroke-width="2" fill="none" marker-end="url(#SvgjsMarker1169)"></path><rect id="SvgjsRect1171" width="13" height="16" x="419.125" y="454" fill="#ffffff"></rect><text id="SvgjsText1172" font-family="微软雅黑" text-anchor="middle" font-size="13px" width="13" fill="#323232" font-weight="400" align="top" anchor="middle" family="微软雅黑" size="13px" weight="400" font-style="" y="452.05" transform="rotate(0)"><tspan id="SvgjsTspan1173" dy="16" x="425.625"><tspan id="SvgjsTspan1174" style="text-decoration:;">是</tspan></tspan></text></g><g id="SvgjsG1175" transform="translate(487,560.5)"><path id="SvgjsPath1176" d="M 0 0L 164 0L 164 57L 0 57Z" stroke="#323232" stroke-width="2" fill-opacity="1" fill="#ffffff"></path><g id="SvgjsG1177"><text id="SvgjsText1178" font-family="微软雅黑" text-anchor="middle" font-size="23px" width="138" fill="#323232" font-weight="400" align="middle" anchor="middle" family="微软雅黑" size="23px" weight="400" font-style="" y="-3.9499999999999997" transform="rotate(0)"><tspan id="SvgjsTspan1179" dy="28" x="82"><tspan id="SvgjsTspan1180" style="text-decoration:;">报错，不进行</tspan></tspan><tspan id="SvgjsTspan1181" dy="28" x="82"><tspan id="SvgjsTspan1182" style="text-decoration:;">交易</tspan></tspan></text></g></g><g id="SvgjsG1183"><path id="SvgjsPath1184" d="M371 580.25L371 589L487 589" stroke="#323232" stroke-width="2" fill="none" marker-end="url(#SvgjsMarker1185)"></path><rect id="SvgjsRect1187" width="13" height="16" x="418.125" y="581" fill="#ffffff"></rect><text id="SvgjsText1188" font-family="微软雅黑" text-anchor="middle" font-size="13px" width="13" fill="#323232" font-weight="400" align="top" anchor="middle" family="微软雅黑" size="13px" weight="400" font-style="" y="579.05" transform="rotate(0)"><tspan id="SvgjsTspan1189" dy="16" x="424.625"><tspan id="SvgjsTspan1190" style="text-decoration:;">否</tspan></tspan></text></g></svg>