<svg id="SvgjsSvg1006" width="690" height="650" xmlns="http://www.w3.org/2000/svg" version="1.1" xmlns:xlink="http://www.w3.org/1999/xlink" xmlns:svgjs="http://svgjs.com/svgjs"><defs id="SvgjsDefs1007"><pattern id="SvgjsPattern1039" x="0" y="0" width="128" height="128" patternUnits="userSpaceOnUse"><image id="SvgjsImage1040" xlink:href="https://cdn1.processon.com/5eca7a2de401fd268dcc508b?e=1590331453&amp;token=trhI0BY8QfVrIGn9nENop6JAc6l5nZuxhjQ62UfM:YhzwoFu16KHOLYp3jA46Eckw23w=" width="128" height="128" preserveAspectRatio="none" crossOrigin="anonymous" x="0" y="0"></image></pattern><marker id="SvgjsMarker1105" markerWidth="16" markerHeight="12" refX="16" refY="6" viewBox="0 0 16 12" orient="auto" markerUnits="userSpaceOnUse"><path id="SvgjsPath1106" d="M0,2 L14,6 L0,11 L0,2" fill="#323232" stroke="#323232" stroke-width="2"></path></marker><marker id="SvgjsMarker1121" markerWidth="16" markerHeight="12" refX="16" refY="6" viewBox="0 0 16 12" orient="auto" markerUnits="userSpaceOnUse"><path id="SvgjsPath1122" d="M0,2 L14,6 L0,11 L0,2" fill="#323232" stroke="#323232" stroke-width="2"></path></marker><marker id="SvgjsMarker1133" markerWidth="16" markerHeight="12" refX="16" refY="6" viewBox="0 0 16 12" orient="auto" markerUnits="userSpaceOnUse"><path id="SvgjsPath1134" d="M0,2 L14,6 L0,11 L0,2" fill="#323232" stroke="#323232" stroke-width="2"></path></marker><marker id="SvgjsMarker1137" markerWidth="16" markerHeight="12" refX="16" refY="6" viewBox="0 0 16 12" orient="auto" markerUnits="userSpaceOnUse"><path id="SvgjsPath1138" d="M0,2 L14,6 L0,11 L0,2" fill="#323232" stroke="#323232" stroke-width="2"></path></marker><marker id="SvgjsMarker1141" markerWidth="16" markerHeight="12" refX="16" refY="6" viewBox="0 0 16 12" orient="auto" markerUnits="userSpaceOnUse"><path id="SvgjsPath1142" d="M0,2 L14,6 L0,11 L0,2" fill="#323232" stroke="#323232" stroke-width="2"></path></marker></defs><g id="SvgjsG1008" transform="translate(25,25)"><path id="SvgjsPath1009" d="M 0 0L 640 0L 640 200L 0 200Z" stroke="#323232" stroke-width="2" fill="none"></path><path id="SvgjsPath1010" d="M 0 0L 40 0L 40 200L 0 200Z" stroke="#323232" stroke-width="2" fill-opacity="1" fill="#ffffff"></path><g id="SvgjsG1011"><text id="SvgjsText1012" font-family="微软雅黑" text-anchor="middle" font-size="16px" width="0" fill="#323232" font-weight="400" align="middle" anchor="middle" family="微软雅黑" size="16px" weight="400" font-style="" y="7.6" transform="rotate(270)"></text></g></g><g id="SvgjsG1013" transform="translate(30,56.5)"><path id="SvgjsPath1014" d="M 0 0L 30 0L 30 137L 0 137Z" stroke="none" fill="none"></path><g id="SvgjsG1015"><text id="SvgjsText1016" font-family="微软雅黑" text-anchor="middle" font-size="27px" width="27" fill="#323232" font-weight="400" align="middle" anchor="middle" family="微软雅黑" size="27px" weight="400" font-style="" y="-20.55" transform="rotate(0)"><tspan id="SvgjsTspan1017" dy="33" x="15"><tspan id="SvgjsTspan1018" style="text-decoration:;">记</tspan></tspan><tspan id="SvgjsTspan1019" dy="33" x="15"><tspan id="SvgjsTspan1020" style="text-decoration:;">录</tspan></tspan><tspan id="SvgjsTspan1021" dy="33" x="15"><tspan id="SvgjsTspan1022" style="text-decoration:;">优</tspan></tspan><tspan id="SvgjsTspan1023" dy="33" x="15"><tspan id="SvgjsTspan1024" style="text-decoration:;">惠</tspan></tspan><tspan id="SvgjsTspan1025" dy="33" x="15"><tspan id="SvgjsTspan1026" style="text-decoration:;">券</tspan></tspan></text></g></g><g id="SvgjsG1027" transform="translate(126,70.25)"><path id="SvgjsPath1028" d="M 36.5 0L 117.5 0C 166.16666666666666 0 166.16666666666666 109.5 117.5 109.5L 36.5 109.5C -12.166666666666666 109.5 -12.166666666666666 0 36.5 0Z" stroke="#323232" stroke-width="2" fill-opacity="1" fill="#ffffff"></path><g id="SvgjsG1029"><text id="SvgjsText1030" font-family="微软雅黑" text-anchor="middle" font-size="23px" width="115" fill="#323232" font-weight="400" align="middle" anchor="middle" family="微软雅黑" size="23px" weight="400" font-style="" y="7.800000000000001" transform="rotate(0)"><tspan id="SvgjsTspan1031" dy="28" x="77"><tspan id="SvgjsTspan1032" style="text-decoration:;">建立并维护</tspan></tspan><tspan id="SvgjsTspan1033" dy="28" x="77"><tspan id="SvgjsTspan1034" style="text-decoration:;">链上优惠券</tspan></tspan><tspan id="SvgjsTspan1035" dy="28" x="77"><tspan id="SvgjsTspan1036" style="text-decoration:;">用户数据库</tspan></tspan></text></g></g><g id="SvgjsG1037" transform="translate(366,61)"><path id="SvgjsPath1038" d="M 0 0L 128 0L 128 128L 0 128Z" stroke="none" fill="url(#SvgjsPattern1039)"></path></g><g id="SvgjsG1041" transform="translate(25,225)"><path id="SvgjsPath1042" d="M 0 0L 640 0L 640 200L 0 200Z" stroke="#323232" stroke-width="2" fill="none"></path><path id="SvgjsPath1043" d="M 0 0L 40 0L 40 200L 0 200Z" stroke="#323232" stroke-width="2" fill-opacity="1" fill="#ffffff"></path><g id="SvgjsG1044"><text id="SvgjsText1045" font-family="微软雅黑" text-anchor="middle" font-size="16px" width="0" fill="#323232" font-weight="400" align="middle" anchor="middle" family="微软雅黑" size="16px" weight="400" font-style="" y="7.6" transform="rotate(270)"></text></g></g><g id="SvgjsG1046" transform="translate(30,256.5)"><path id="SvgjsPath1047" d="M 0 0L 30 0L 30 137L 0 137Z" stroke="none" fill="none"></path><g id="SvgjsG1048"><text id="SvgjsText1049" font-family="微软雅黑" text-anchor="middle" font-size="27px" width="27" fill="#323232" font-weight="400" align="middle" anchor="middle" family="微软雅黑" size="27px" weight="400" font-style="" y="-20.55" transform="rotate(0)"><tspan id="SvgjsTspan1050" dy="33" x="15"><tspan id="SvgjsTspan1051" style="text-decoration:;">兑</tspan></tspan><tspan id="SvgjsTspan1052" dy="33" x="15"><tspan id="SvgjsTspan1053" style="text-decoration:;">换</tspan></tspan><tspan id="SvgjsTspan1054" dy="33" x="15"><tspan id="SvgjsTspan1055" style="text-decoration:;">优</tspan></tspan><tspan id="SvgjsTspan1056" dy="33" x="15"><tspan id="SvgjsTspan1057" style="text-decoration:;">惠</tspan></tspan><tspan id="SvgjsTspan1058" dy="33" x="15"><tspan id="SvgjsTspan1059" style="text-decoration:;">券</tspan></tspan></text></g></g><g id="SvgjsG1060" transform="translate(78,267)"><path id="SvgjsPath1061" d="M 38.666666666666664 0L 143.33333333333334 0C 194.88888888888889 0 194.88888888888889 116 143.33333333333334 116L 38.666666666666664 116C -12.888888888888888 116 -12.888888888888888 0 38.666666666666664 0Z" stroke="#323232" stroke-width="2" fill-opacity="1" fill="#ffffff"></path><g id="SvgjsG1062"><text id="SvgjsText1063" font-family="微软雅黑" text-anchor="middle" font-size="23px" width="161" fill="#323232" font-weight="400" align="middle" anchor="middle" family="微软雅黑" size="23px" weight="400" font-style="" y="11.05" transform="rotate(0)"><tspan id="SvgjsTspan1064" dy="28" x="91"><tspan id="SvgjsTspan1065" style="text-decoration:;">用户通过碳积分</tspan></tspan><tspan id="SvgjsTspan1066" dy="28" x="91"><tspan id="SvgjsTspan1067" style="text-decoration:;">或通过卡牌消灭</tspan></tspan><tspan id="SvgjsTspan1068" dy="28" x="91"><tspan id="SvgjsTspan1069" style="text-decoration:;">碳元素兑换优惠</tspan></tspan></text></g></g><g id="SvgjsG1070" transform="translate(25,425)"><path id="SvgjsPath1071" d="M 0 0L 640 0L 640 200L 0 200Z" stroke="#323232" stroke-width="2" fill="none"></path><path id="SvgjsPath1072" d="M 0 0L 40 0L 40 200L 0 200Z" stroke="#323232" stroke-width="2" fill-opacity="1" fill="#ffffff"></path><g id="SvgjsG1073"><text id="SvgjsText1074" font-family="微软雅黑" text-anchor="middle" font-size="16px" width="0" fill="#323232" font-weight="400" align="middle" anchor="middle" family="微软雅黑" size="16px" weight="400" font-style="" y="7.6" transform="rotate(270)"></text></g></g><g id="SvgjsG1075" transform="translate(30,456.5)"><path id="SvgjsPath1076" d="M 0 0L 30 0L 30 137L 0 137Z" stroke="none" fill="none"></path><g id="SvgjsG1077"><text id="SvgjsText1078" font-family="微软雅黑" text-anchor="middle" font-size="27px" width="27" fill="#323232" font-weight="400" align="middle" anchor="middle" family="微软雅黑" size="27px" weight="400" font-style="" y="-20.55" transform="rotate(0)"><tspan id="SvgjsTspan1079" dy="33" x="15"><tspan id="SvgjsTspan1080" style="text-decoration:;">转</tspan></tspan><tspan id="SvgjsTspan1081" dy="33" x="15"><tspan id="SvgjsTspan1082" style="text-decoration:;">移</tspan></tspan><tspan id="SvgjsTspan1083" dy="33" x="15"><tspan id="SvgjsTspan1084" style="text-decoration:;">优</tspan></tspan><tspan id="SvgjsTspan1085" dy="33" x="15"><tspan id="SvgjsTspan1086" style="text-decoration:;">惠</tspan></tspan><tspan id="SvgjsTspan1087" dy="33" x="15"><tspan id="SvgjsTspan1088" style="text-decoration:;">券</tspan></tspan></text></g></g><g id="SvgjsG1089" transform="translate(92,470.25)"><path id="SvgjsPath1090" d="M 36.5 0L 117.5 0C 166.16666666666666 0 166.16666666666666 109.5 117.5 109.5L 36.5 109.5C -12.166666666666666 109.5 -12.166666666666666 0 36.5 0Z" stroke="#323232" stroke-width="2" fill-opacity="1" fill="#ffffff"></path><g id="SvgjsG1091"><text id="SvgjsText1092" font-family="微软雅黑" text-anchor="middle" font-size="23px" width="92" fill="#323232" font-weight="400" align="middle" anchor="middle" family="微软雅黑" size="23px" weight="400" font-style="" y="36.8" transform="rotate(0)"><tspan id="SvgjsTspan1093" dy="28" x="77"><tspan id="SvgjsTspan1094" style="text-decoration:;">内部调用</tspan></tspan></text></g></g><g id="SvgjsG1095" transform="translate(295,477.5)"><path id="SvgjsPath1096" d="M 0 0L 219 0L 219 95L 0 95Z" stroke="#323232" stroke-width="2" fill-opacity="1" fill="#ffffff"></path><g id="SvgjsG1097"><text id="SvgjsText1098" font-family="微软雅黑" text-anchor="middle" font-size="23px" width="184" fill="#323232" font-weight="400" align="middle" anchor="middle" family="微软雅黑" size="23px" weight="400" font-style="" y="15.05" transform="rotate(0)"><tspan id="SvgjsTspan1099" dy="28" x="109.5"><tspan id="SvgjsTspan1100" style="text-decoration:;">向指定用户转移优</tspan></tspan><tspan id="SvgjsTspan1101" dy="28" x="109.5"><tspan id="SvgjsTspan1102" style="text-decoration:;">惠券或销毁优惠券</tspan></tspan></text></g></g><g id="SvgjsG1103"><path id="SvgjsPath1104" d="M246 525L270.5 525L270.5 525L295 525" stroke="#323232" stroke-width="2" fill="none" marker-end="url(#SvgjsMarker1105)"></path></g><g id="SvgjsG1107" transform="translate(280,265.75)"><path id="SvgjsPath1108" d="M 0 4Q 0 0 4 0L 158 0Q 162 0 162 4L 162 114.5Q 162 118.5 158 118.5L 4 118.5Q 0 118.5 0 114.5Z" stroke="#323232" stroke-width="2" fill-opacity="1" fill="#ffffff"></path><g id="SvgjsG1109"><text id="SvgjsText1110" font-family="微软雅黑" text-anchor="middle" font-size="23px" width="138" fill="#323232" font-weight="400" align="middle" anchor="middle" family="微软雅黑" size="23px" weight="400" font-style="" y="-2.1999999999999997" transform="rotate(0)"><tspan id="SvgjsTspan1111" dy="28" x="81"><tspan id="SvgjsTspan1112" style="text-decoration:;">调用碳积分或</tspan></tspan><tspan id="SvgjsTspan1113" dy="28" x="81"><tspan id="SvgjsTspan1114" style="text-decoration:;">卡牌合约销毁</tspan></tspan><tspan id="SvgjsTspan1115" dy="28" x="81"><tspan id="SvgjsTspan1116" style="text-decoration:;">相应数量的碳</tspan></tspan><tspan id="SvgjsTspan1117" dy="28" x="81"><tspan id="SvgjsTspan1118" style="text-decoration:;">积分或卡牌</tspan></tspan></text></g></g><g id="SvgjsG1119"><path id="SvgjsPath1120" d="M260 325L270 325L270 325L280 325" stroke="#323232" stroke-width="2" fill="none" marker-end="url(#SvgjsMarker1121)"></path></g><g id="SvgjsG1123" transform="translate(474,286)"><path id="SvgjsPath1124" d="M 0 4Q 0 0 4 0L 144 0Q 148 0 148 4L 148 74Q 148 78 144 78L 4 78Q 0 78 0 74Z" stroke="#323232" stroke-width="2" fill-opacity="1" fill="#ffffff"></path><g id="SvgjsG1125"><text id="SvgjsText1126" font-family="微软雅黑" text-anchor="middle" font-size="23px" width="115" fill="#323232" font-weight="400" align="middle" anchor="middle" family="微软雅黑" size="23px" weight="400" font-style="" y="6.550000000000001" transform="rotate(0)"><tspan id="SvgjsTspan1127" dy="28" x="74"><tspan id="SvgjsTspan1128" style="text-decoration:;">发放相应优</tspan></tspan><tspan id="SvgjsTspan1129" dy="28" x="74"><tspan id="SvgjsTspan1130" style="text-decoration:;">惠券</tspan></tspan></text></g></g><g id="SvgjsG1131"><path id="SvgjsPath1132" d="M442 325L458 325L458 325L474 325" stroke="#323232" stroke-width="2" fill="none" marker-end="url(#SvgjsMarker1133)"></path></g><g id="SvgjsG1135"><path id="SvgjsPath1136" d="M622 325L638 325L638 125L494 125" stroke="#323232" stroke-width="2" fill="none" marker-end="url(#SvgjsMarker1137)"></path></g><g id="SvgjsG1139"><path id="SvgjsPath1140" d="M514 525L653 525L653 35L430 35L430 61" stroke="#323232" stroke-width="2" fill="none" marker-end="url(#SvgjsMarker1141)"></path></g></svg>