<svg id="SvgjsSvg1006" width="690" height="650" xmlns="http://www.w3.org/2000/svg" version="1.1" xmlns:xlink="http://www.w3.org/1999/xlink" xmlns:svgjs="http://svgjs.com/svgjs"><defs id="SvgjsDefs1007"><pattern id="SvgjsPattern1037" x="0" y="0" width="128" height="128" patternUnits="userSpaceOnUse"><image id="SvgjsImage1038" xlink:href="https://cdn1.processon.com/5eca7c907d9c08156c5f7c01?e=1590332064&amp;token=trhI0BY8QfVrIGn9nENop6JAc6l5nZuxhjQ62UfM:-EtJytOEApTbMCKFh8LwQF6bDg0=" width="128" height="128" preserveAspectRatio="none" crossOrigin="anonymous" x="0" y="0"></image></pattern><marker id="SvgjsMarker1078" markerWidth="16" markerHeight="12" refX="16" refY="6" viewBox="0 0 16 12" orient="auto" markerUnits="userSpaceOnUse"><path id="SvgjsPath1079" d="M0,2 L14,6 L0,11 L0,2" fill="#323232" stroke="#323232" stroke-width="2"></path></marker><marker id="SvgjsMarker1082" markerWidth="16" markerHeight="12" refX="16" refY="6" viewBox="0 0 16 12" orient="auto" markerUnits="userSpaceOnUse"><path id="SvgjsPath1083" d="M0,2 L14,6 L0,11 L0,2" fill="#323232" stroke="#323232" stroke-width="2"></path></marker><marker id="SvgjsMarker1119" markerWidth="16" markerHeight="12" refX="16" refY="6" viewBox="0 0 16 12" orient="auto" markerUnits="userSpaceOnUse"><path id="SvgjsPath1120" d="M0,2 L14,6 L0,11 L0,2" fill="#323232" stroke="#323232" stroke-width="2"></path></marker><marker id="SvgjsMarker1123" markerWidth="16" markerHeight="12" refX="16" refY="6" viewBox="0 0 16 12" orient="auto" markerUnits="userSpaceOnUse"><path id="SvgjsPath1124" d="M0,2 L14,6 L0,11 L0,2" fill="#323232" stroke="#323232" stroke-width="2"></path></marker></defs><g id="SvgjsG1008" transform="translate(25,25)"><path id="SvgjsPath1009" d="M 0 0L 640 0L 640 200L 0 200Z" stroke="#323232" stroke-width="2" fill="none"></path><path id="SvgjsPath1010" d="M 0 0L 40 0L 40 200L 0 200Z" stroke="#323232" stroke-width="2" fill-opacity="1" fill="#ffffff"></path><g id="SvgjsG1011"><text id="SvgjsText1012" font-family="微软雅黑" text-anchor="middle" font-size="16px" width="0" fill="#323232" font-weight="400" align="middle" anchor="middle" family="微软雅黑" size="16px" weight="400" font-style="" y="7.6" transform="rotate(270)"></text></g></g><g id="SvgjsG1013" transform="translate(30,56.5)"><path id="SvgjsPath1014" d="M 0 0L 30 0L 30 137L 0 137Z" stroke="none" fill="none"></path><g id="SvgjsG1015"><text id="SvgjsText1016" font-family="微软雅黑" text-anchor="middle" font-size="27px" width="27" fill="#323232" font-weight="400" align="middle" anchor="middle" family="微软雅黑" size="27px" weight="400" font-style="" y="-3.55" transform="rotate(0)"><tspan id="SvgjsTspan1017" dy="33" x="15"><tspan id="SvgjsTspan1018" style="text-decoration:;">记</tspan></tspan><tspan id="SvgjsTspan1019" dy="33" x="15"><tspan id="SvgjsTspan1020" style="text-decoration:;">录</tspan></tspan><tspan id="SvgjsTspan1021" dy="33" x="15"><tspan id="SvgjsTspan1022" style="text-decoration:;">勋</tspan></tspan><tspan id="SvgjsTspan1023" dy="33" x="15"><tspan id="SvgjsTspan1024" style="text-decoration:;">章</tspan></tspan></text></g></g><g id="SvgjsG1025" transform="translate(126,70.25)"><path id="SvgjsPath1026" d="M 36.5 0L 117.5 0C 166.16666666666666 0 166.16666666666666 109.5 117.5 109.5L 36.5 109.5C -12.166666666666666 109.5 -12.166666666666666 0 36.5 0Z" stroke="#323232" stroke-width="2" fill-opacity="1" fill="#ffffff"></path><g id="SvgjsG1027"><text id="SvgjsText1028" font-family="微软雅黑" text-anchor="middle" font-size="23px" width="115" fill="#323232" font-weight="400" align="middle" anchor="middle" family="微软雅黑" size="23px" weight="400" font-style="" y="7.800000000000001" transform="rotate(0)"><tspan id="SvgjsTspan1029" dy="28" x="77"><tspan id="SvgjsTspan1030" style="text-decoration:;">建立并维护</tspan></tspan><tspan id="SvgjsTspan1031" dy="28" x="77"><tspan id="SvgjsTspan1032" style="text-decoration:;">链上勋章用</tspan></tspan><tspan id="SvgjsTspan1033" dy="28" x="77"><tspan id="SvgjsTspan1034" style="text-decoration:;">户数据库</tspan></tspan></text></g></g><g id="SvgjsG1035" transform="translate(366,61)"><path id="SvgjsPath1036" d="M 0 0L 128 0L 128 128L 0 128Z" stroke="none" fill="url(#SvgjsPattern1037)"></path></g><g id="SvgjsG1039" transform="translate(25,225)"><path id="SvgjsPath1040" d="M 0 0L 640 0L 640 200L 0 200Z" stroke="#323232" stroke-width="2" fill="none"></path><path id="SvgjsPath1041" d="M 0 0L 40 0L 40 200L 0 200Z" stroke="#323232" stroke-width="2" fill-opacity="1" fill="#ffffff"></path><g id="SvgjsG1042"><text id="SvgjsText1043" font-family="微软雅黑" text-anchor="middle" font-size="16px" width="0" fill="#323232" font-weight="400" align="middle" anchor="middle" family="微软雅黑" size="16px" weight="400" font-style="" y="7.6" transform="rotate(270)"></text></g></g><g id="SvgjsG1044" transform="translate(30,256.5)"><path id="SvgjsPath1045" d="M 0 0L 30 0L 30 137L 0 137Z" stroke="none" fill="none"></path><g id="SvgjsG1046"><text id="SvgjsText1047" font-family="微软雅黑" text-anchor="middle" font-size="27px" width="27" fill="#323232" font-weight="400" align="middle" anchor="middle" family="微软雅黑" size="27px" weight="400" font-style="" y="-3.55" transform="rotate(0)"><tspan id="SvgjsTspan1048" dy="33" x="15"><tspan id="SvgjsTspan1049" style="text-decoration:;">发</tspan></tspan><tspan id="SvgjsTspan1050" dy="33" x="15"><tspan id="SvgjsTspan1051" style="text-decoration:;">放</tspan></tspan><tspan id="SvgjsTspan1052" dy="33" x="15"><tspan id="SvgjsTspan1053" style="text-decoration:;">勋</tspan></tspan><tspan id="SvgjsTspan1054" dy="33" x="15"><tspan id="SvgjsTspan1055" style="text-decoration:;">章</tspan></tspan></text></g></g><g id="SvgjsG1056" transform="translate(78,267)"><path id="SvgjsPath1057" d="M 38.666666666666664 0L 143.33333333333334 0C 194.88888888888889 0 194.88888888888889 116 143.33333333333334 116L 38.666666666666664 116C -12.888888888888888 116 -12.888888888888888 0 38.666666666666664 0Z" stroke="#323232" stroke-width="2" fill-opacity="1" fill="#ffffff"></path><g id="SvgjsG1058"><text id="SvgjsText1059" font-family="微软雅黑" text-anchor="middle" font-size="23px" width="161" fill="#323232" font-weight="400" align="middle" anchor="middle" family="微软雅黑" size="23px" weight="400" font-style="" y="11.05" transform="rotate(0)"><tspan id="SvgjsTspan1060" dy="28" x="91"><tspan id="SvgjsTspan1061" style="text-decoration:;">赛季结束时碳积</tspan></tspan><tspan id="SvgjsTspan1062" dy="28" x="91"><tspan id="SvgjsTspan1063" style="text-decoration:;">分卡牌累计达到</tspan></tspan><tspan id="SvgjsTspan1064" dy="28" x="91"><tspan id="SvgjsTspan1065" style="text-decoration:;">阈值、内部调用</tspan></tspan></text></g></g><g id="SvgjsG1066" transform="translate(281,275.25)"><path id="SvgjsPath1067" d="M 0 0L 128 0L 128 99.5L 0 99.5Z" stroke="#323232" stroke-width="2" fill-opacity="1" fill="#ffffff"></path><g id="SvgjsG1068"><text id="SvgjsText1069" font-family="微软雅黑" text-anchor="middle" font-size="23px" width="92" fill="#323232" font-weight="400" align="middle" anchor="middle" family="微软雅黑" size="23px" weight="400" font-style="" y="2.8000000000000003" transform="rotate(0)"><tspan id="SvgjsTspan1070" dy="28" x="64"><tspan id="SvgjsTspan1071" style="text-decoration:;">计算并发</tspan></tspan><tspan id="SvgjsTspan1072" dy="28" x="64"><tspan id="SvgjsTspan1073" style="text-decoration:;">放相应的</tspan></tspan><tspan id="SvgjsTspan1074" dy="28" x="64"><tspan id="SvgjsTspan1075" style="text-decoration:;">谈勋章</tspan></tspan></text></g></g><g id="SvgjsG1076"><path id="SvgjsPath1077" d="M409 325L430 325L430 189" stroke="#323232" stroke-width="2" fill="none" marker-end="url(#SvgjsMarker1078)"></path></g><g id="SvgjsG1080"><path id="SvgjsPath1081" d="M260 325L270.5 325L270.5 325L281 325" stroke="#323232" stroke-width="2" fill="none" marker-end="url(#SvgjsMarker1082)"></path></g><g id="SvgjsG1084" transform="translate(25,425)"><path id="SvgjsPath1085" d="M 0 0L 640 0L 640 200L 0 200Z" stroke="#323232" stroke-width="2" fill="none"></path><path id="SvgjsPath1086" d="M 0 0L 40 0L 40 200L 0 200Z" stroke="#323232" stroke-width="2" fill-opacity="1" fill="#ffffff"></path><g id="SvgjsG1087"><text id="SvgjsText1088" font-family="微软雅黑" text-anchor="middle" font-size="16px" width="0" fill="#323232" font-weight="400" align="middle" anchor="middle" family="微软雅黑" size="16px" weight="400" font-style="" y="7.6" transform="rotate(270)"></text></g></g><g id="SvgjsG1089" transform="translate(30,456.5)"><path id="SvgjsPath1090" d="M 0 0L 30 0L 30 137L 0 137Z" stroke="none" fill="none"></path><g id="SvgjsG1091"><text id="SvgjsText1092" font-family="微软雅黑" text-anchor="middle" font-size="27px" width="27" fill="#323232" font-weight="400" align="middle" anchor="middle" family="微软雅黑" size="27px" weight="400" font-style="" y="-3.55" transform="rotate(0)"><tspan id="SvgjsTspan1093" dy="33" x="15"><tspan id="SvgjsTspan1094" style="text-decoration:;">查</tspan></tspan><tspan id="SvgjsTspan1095" dy="33" x="15"><tspan id="SvgjsTspan1096" style="text-decoration:;">看</tspan></tspan><tspan id="SvgjsTspan1097" dy="33" x="15"><tspan id="SvgjsTspan1098" style="text-decoration:;">勋</tspan></tspan><tspan id="SvgjsTspan1099" dy="33" x="15"><tspan id="SvgjsTspan1100" style="text-decoration:;">章</tspan></tspan></text></g></g><g id="SvgjsG1101" transform="translate(92,470.25)"><path id="SvgjsPath1102" d="M 36.5 0L 117.5 0C 166.16666666666666 0 166.16666666666666 109.5 117.5 109.5L 36.5 109.5C -12.166666666666666 109.5 -12.166666666666666 0 36.5 0Z" stroke="#323232" stroke-width="2" fill-opacity="1" fill="#ffffff"></path><g id="SvgjsG1103"><text id="SvgjsText1104" font-family="微软雅黑" text-anchor="middle" font-size="23px" width="115" fill="#323232" font-weight="400" align="middle" anchor="middle" family="微软雅黑" size="23px" weight="400" font-style="" y="22.3" transform="rotate(0)"><tspan id="SvgjsTspan1105" dy="28" x="77"><tspan id="SvgjsTspan1106" style="text-decoration:;">用户查看勋</tspan></tspan><tspan id="SvgjsTspan1107" dy="28" x="77"><tspan id="SvgjsTspan1108" style="text-decoration:;">章</tspan></tspan></text></g></g><g id="SvgjsG1109" transform="translate(295,477.5)"><path id="SvgjsPath1110" d="M 0 0L 219 0L 219 95L 0 95Z" stroke="#323232" stroke-width="2" fill-opacity="1" fill="#ffffff"></path><g id="SvgjsG1111"><text id="SvgjsText1112" font-family="微软雅黑" text-anchor="middle" font-size="23px" width="184" fill="#323232" font-weight="400" align="middle" anchor="middle" family="微软雅黑" size="23px" weight="400" font-style="" y="15.05" transform="rotate(0)"><tspan id="SvgjsTspan1113" dy="28" x="109.5"><tspan id="SvgjsTspan1114" style="text-decoration:;">向用户展示独一无</tspan></tspan><tspan id="SvgjsTspan1115" dy="28" x="109.5"><tspan id="SvgjsTspan1116" style="text-decoration:;">二的勋章</tspan></tspan></text></g></g><g id="SvgjsG1117"><path id="SvgjsPath1118" d="M246 525L270.5 525L270.5 525L295 525" stroke="#323232" stroke-width="2" fill="none" marker-end="url(#SvgjsMarker1119)"></path></g><g id="SvgjsG1121"><path id="SvgjsPath1122" d="M494 125L544 125L544 525L514 525" stroke="#323232" stroke-width="2" fill="none" marker-end="url(#SvgjsMarker1123)"></path></g></svg>