<svg id="SvgjsSvg1006" width="690" height="650" xmlns="http://www.w3.org/2000/svg" version="1.1" xmlns:xlink="http://www.w3.org/1999/xlink" xmlns:svgjs="http://svgjs.com/svgjs"><defs id="SvgjsDefs1007"><pattern id="SvgjsPattern1037" x="0" y="0" width="128" height="128" patternUnits="userSpaceOnUse"><image id="SvgjsImage1038" xlink:href="https://cdn1.processon.com/5eca7a2de401fd268dcc508b?e=1590331453&amp;token=trhI0BY8QfVrIGn9nENop6JAc6l5nZuxhjQ62UfM:YhzwoFu16KHOLYp3jA46Eckw23w=" width="128" height="128" preserveAspectRatio="none" crossOrigin="anonymous" x="0" y="0"></image></pattern><marker id="SvgjsMarker1097" markerWidth="16" markerHeight="12" refX="16" refY="6" viewBox="0 0 16 12" orient="auto" markerUnits="userSpaceOnUse"><path id="SvgjsPath1098" d="M0,2 L14,6 L0,11 L0,2" fill="#323232" stroke="#323232" stroke-width="2"></path></marker><marker id="SvgjsMarker1111" markerWidth="16" markerHeight="12" refX="16" refY="6" viewBox="0 0 16 12" orient="auto" markerUnits="userSpaceOnUse"><path id="SvgjsPath1112" d="M0,2 L14,6 L0,11 L0,2" fill="#323232" stroke="#323232" stroke-width="2"></path></marker><marker id="SvgjsMarker1131" markerWidth="16" markerHeight="12" refX="16" refY="6" viewBox="0 0 16 12" orient="auto" markerUnits="userSpaceOnUse"><path id="SvgjsPath1132" d="M0,2 L14,6 L0,11 L0,2" fill="#323232" stroke="#323232" stroke-width="2"></path></marker><marker id="SvgjsMarker1135" markerWidth="16" markerHeight="12" refX="16" refY="6" viewBox="0 0 16 12" orient="auto" markerUnits="userSpaceOnUse"><path id="SvgjsPath1136" d="M0,2 L14,6 L0,11 L0,2" fill="#323232" stroke="#323232" stroke-width="2"></path></marker><marker id="SvgjsMarker1139" markerWidth="16" markerHeight="12" refX="16" refY="6" viewBox="0 0 16 12" orient="auto" markerUnits="userSpaceOnUse"><path id="SvgjsPath1140" d="M0,2 L14,6 L0,11 L0,2" fill="#323232" stroke="#323232" stroke-width="2"></path></marker><marker id="SvgjsMarker1143" markerWidth="16" markerHeight="12" refX="16" refY="6" viewBox="0 0 16 12" orient="auto" markerUnits="userSpaceOnUse"><path id="SvgjsPath1144" d="M0,2 L14,6 L0,11 L0,2" fill="#323232" stroke="#323232" stroke-width="2"></path></marker></defs><g id="SvgjsG1008" transform="translate(25,25)"><path id="SvgjsPath1009" d="M 0 0L 640 0L 640 200L 0 200Z" stroke="#323232" stroke-width="2" fill="none"></path><path id="SvgjsPath1010" d="M 0 0L 40 0L 40 200L 0 200Z" stroke="#323232" stroke-width="2" fill-opacity="1" fill="#ffffff"></path><g id="SvgjsG1011"><text id="SvgjsText1012" font-family="微软雅黑" text-anchor="middle" font-size="16px" width="0" fill="#323232" font-weight="400" align="middle" anchor="middle" family="微软雅黑" size="16px" weight="400" font-style="" y="7.6" transform="rotate(270)"></text></g></g><g id="SvgjsG1013" transform="translate(30,56.5)"><path id="SvgjsPath1014" d="M 0 0L 30 0L 30 137L 0 137Z" stroke="none" fill="none"></path><g id="SvgjsG1015"><text id="SvgjsText1016" font-family="微软雅黑" text-anchor="middle" font-size="27px" width="27" fill="#323232" font-weight="400" align="middle" anchor="middle" family="微软雅黑" size="27px" weight="400" font-style="" y="-3.55" transform="rotate(0)"><tspan id="SvgjsTspan1017" dy="33" x="15"><tspan id="SvgjsTspan1018" style="text-decoration:;">记</tspan></tspan><tspan id="SvgjsTspan1019" dy="33" x="15"><tspan id="SvgjsTspan1020" style="text-decoration:;">录</tspan></tspan><tspan id="SvgjsTspan1021" dy="33" x="15"><tspan id="SvgjsTspan1022" style="text-decoration:;">卡</tspan></tspan><tspan id="SvgjsTspan1023" dy="33" x="15"><tspan id="SvgjsTspan1024" style="text-decoration:;">牌</tspan></tspan></text></g></g><g id="SvgjsG1025" transform="translate(126,70.25)"><path id="SvgjsPath1026" d="M 36.5 0L 117.5 0C 166.16666666666666 0 166.16666666666666 109.5 117.5 109.5L 36.5 109.5C -12.166666666666666 109.5 -12.166666666666666 0 36.5 0Z" stroke="#323232" stroke-width="2" fill-opacity="1" fill="#ffffff"></path><g id="SvgjsG1027"><text id="SvgjsText1028" font-family="微软雅黑" text-anchor="middle" font-size="23px" width="115" fill="#323232" font-weight="400" align="middle" anchor="middle" family="微软雅黑" size="23px" weight="400" font-style="" y="7.800000000000001" transform="rotate(0)"><tspan id="SvgjsTspan1029" dy="28" x="77"><tspan id="SvgjsTspan1030" style="text-decoration:;">建立并维护</tspan></tspan><tspan id="SvgjsTspan1031" dy="28" x="77"><tspan id="SvgjsTspan1032" style="text-decoration:;">链上卡牌用</tspan></tspan><tspan id="SvgjsTspan1033" dy="28" x="77"><tspan id="SvgjsTspan1034" style="text-decoration:;">户数据库</tspan></tspan></text></g></g><g id="SvgjsG1035" transform="translate(366,61)"><path id="SvgjsPath1036" d="M 0 0L 128 0L 128 128L 0 128Z" stroke="none" fill="url(#SvgjsPattern1037)"></path></g><g id="SvgjsG1039" transform="translate(25,225)"><path id="SvgjsPath1040" d="M 0 0L 640 0L 640 200L 0 200Z" stroke="#323232" stroke-width="2" fill="none"></path><path id="SvgjsPath1041" d="M 0 0L 40 0L 40 200L 0 200Z" stroke="#323232" stroke-width="2" fill-opacity="1" fill="#ffffff"></path><g id="SvgjsG1042"><text id="SvgjsText1043" font-family="微软雅黑" text-anchor="middle" font-size="16px" width="0" fill="#323232" font-weight="400" align="middle" anchor="middle" family="微软雅黑" size="16px" weight="400" font-style="" y="7.6" transform="rotate(270)"></text></g></g><g id="SvgjsG1044" transform="translate(30,256.5)"><path id="SvgjsPath1045" d="M 0 0L 30 0L 30 137L 0 137Z" stroke="none" fill="none"></path><g id="SvgjsG1046"><text id="SvgjsText1047" font-family="微软雅黑" text-anchor="middle" font-size="27px" width="27" fill="#323232" font-weight="400" align="middle" anchor="middle" family="微软雅黑" size="27px" weight="400" font-style="" y="-3.55" transform="rotate(0)"><tspan id="SvgjsTspan1048" dy="33" x="15"><tspan id="SvgjsTspan1049" style="text-decoration:;">抽</tspan></tspan><tspan id="SvgjsTspan1050" dy="33" x="15"><tspan id="SvgjsTspan1051" style="text-decoration:;">取</tspan></tspan><tspan id="SvgjsTspan1052" dy="33" x="15"><tspan id="SvgjsTspan1053" style="text-decoration:;">卡</tspan></tspan><tspan id="SvgjsTspan1054" dy="33" x="15"><tspan id="SvgjsTspan1055" style="text-decoration:;">牌</tspan></tspan></text></g></g><g id="SvgjsG1056" transform="translate(78,267)"><path id="SvgjsPath1057" d="M 38.666666666666664 0L 143.33333333333334 0C 194.88888888888889 0 194.88888888888889 116 143.33333333333334 116L 38.666666666666664 116C -12.888888888888888 116 -12.888888888888888 0 38.666666666666664 0Z" stroke="#323232" stroke-width="2" fill-opacity="1" fill="#ffffff"></path><g id="SvgjsG1058"><text id="SvgjsText1059" font-family="微软雅黑" text-anchor="middle" font-size="23px" width="161" fill="#323232" font-weight="400" align="middle" anchor="middle" family="微软雅黑" size="23px" weight="400" font-style="" y="25.55" transform="rotate(0)"><tspan id="SvgjsTspan1060" dy="28" x="91"><tspan id="SvgjsTspan1061" style="text-decoration:;">用户消费碳积分</tspan></tspan><tspan id="SvgjsTspan1062" dy="28" x="91"><tspan id="SvgjsTspan1063" style="text-decoration:;">抽取卡牌</tspan></tspan></text></g></g><g id="SvgjsG1064" transform="translate(25,425)"><path id="SvgjsPath1065" d="M 0 0L 640 0L 640 200L 0 200Z" stroke="#323232" stroke-width="2" fill="none"></path><path id="SvgjsPath1066" d="M 0 0L 40 0L 40 200L 0 200Z" stroke="#323232" stroke-width="2" fill-opacity="1" fill="#ffffff"></path><g id="SvgjsG1067"><text id="SvgjsText1068" font-family="微软雅黑" text-anchor="middle" font-size="16px" width="0" fill="#323232" font-weight="400" align="middle" anchor="middle" family="微软雅黑" size="16px" weight="400" font-style="" y="7.6" transform="rotate(270)"></text></g></g><g id="SvgjsG1069" transform="translate(30,456.5)"><path id="SvgjsPath1070" d="M 0 0L 30 0L 30 137L 0 137Z" stroke="none" fill="none"></path><g id="SvgjsG1071"><text id="SvgjsText1072" font-family="微软雅黑" text-anchor="middle" font-size="27px" width="27" fill="#323232" font-weight="400" align="middle" anchor="middle" family="微软雅黑" size="27px" weight="400" font-style="" y="-3.55" transform="rotate(0)"><tspan id="SvgjsTspan1073" dy="33" x="15"><tspan id="SvgjsTspan1074" style="text-decoration:;">转</tspan></tspan><tspan id="SvgjsTspan1075" dy="33" x="15"><tspan id="SvgjsTspan1076" style="text-decoration:;">移</tspan></tspan><tspan id="SvgjsTspan1077" dy="33" x="15"><tspan id="SvgjsTspan1078" style="text-decoration:;">卡</tspan></tspan><tspan id="SvgjsTspan1079" dy="33" x="15"><tspan id="SvgjsTspan1080" style="text-decoration:;">牌</tspan></tspan></text></g></g><g id="SvgjsG1081" transform="translate(92,470.25)"><path id="SvgjsPath1082" d="M 36.5 0L 117.5 0C 166.16666666666666 0 166.16666666666666 109.5 117.5 109.5L 36.5 109.5C -12.166666666666666 109.5 -12.166666666666666 0 36.5 0Z" stroke="#323232" stroke-width="2" fill-opacity="1" fill="#ffffff"></path><g id="SvgjsG1083"><text id="SvgjsText1084" font-family="微软雅黑" text-anchor="middle" font-size="23px" width="92" fill="#323232" font-weight="400" align="middle" anchor="middle" family="微软雅黑" size="23px" weight="400" font-style="" y="36.8" transform="rotate(0)"><tspan id="SvgjsTspan1085" dy="28" x="77"><tspan id="SvgjsTspan1086" style="text-decoration:;">内部调用</tspan></tspan></text></g></g><g id="SvgjsG1087" transform="translate(295,477.5)"><path id="SvgjsPath1088" d="M 0 0L 219 0L 219 95L 0 95Z" stroke="#323232" stroke-width="2" fill-opacity="1" fill="#ffffff"></path><g id="SvgjsG1089"><text id="SvgjsText1090" font-family="微软雅黑" text-anchor="middle" font-size="23px" width="184" fill="#323232" font-weight="400" align="middle" anchor="middle" family="微软雅黑" size="23px" weight="400" font-style="" y="15.05" transform="rotate(0)"><tspan id="SvgjsTspan1091" dy="28" x="109.5"><tspan id="SvgjsTspan1092" style="text-decoration:;">向指定用户转移卡</tspan></tspan><tspan id="SvgjsTspan1093" dy="28" x="109.5"><tspan id="SvgjsTspan1094" style="text-decoration:;">牌或销毁卡牌</tspan></tspan></text></g></g><g id="SvgjsG1095"><path id="SvgjsPath1096" d="M246 525L270.5 525L270.5 525L295 525" stroke="#323232" stroke-width="2" fill="none" marker-end="url(#SvgjsMarker1097)"></path></g><g id="SvgjsG1099" transform="translate(280,275)"><path id="SvgjsPath1100" d="M 0 4Q 0 0 4 0L 158 0Q 162 0 162 4L 162 96Q 162 100 158 100L 4 100Q 0 100 0 96Z" stroke="#323232" stroke-width="2" fill-opacity="1" fill="#ffffff"></path><g id="SvgjsG1101"><text id="SvgjsText1102" font-family="微软雅黑" text-anchor="middle" font-size="23px" width="138" fill="#323232" font-weight="400" align="middle" anchor="middle" family="微软雅黑" size="23px" weight="400" font-style="" y="3.0500000000000003" transform="rotate(0)"><tspan id="SvgjsTspan1103" dy="28" x="81"><tspan id="SvgjsTspan1104" style="text-decoration:;">调用碳积分合</tspan></tspan><tspan id="SvgjsTspan1105" dy="28" x="81"><tspan id="SvgjsTspan1106" style="text-decoration:;">约销毁相应数</tspan></tspan><tspan id="SvgjsTspan1107" dy="28" x="81"><tspan id="SvgjsTspan1108" style="text-decoration:;">量的碳积分</tspan></tspan></text></g></g><g id="SvgjsG1109"><path id="SvgjsPath1110" d="M260 325L270 325L270 325L280 325" stroke="#323232" stroke-width="2" fill="none" marker-end="url(#SvgjsMarker1111)"></path></g><g id="SvgjsG1113" transform="translate(496,235)"><path id="SvgjsPath1114" d="M 0 0L 100 0L 100 70L 0 70Z" stroke="#323232" stroke-width="2" fill-opacity="1" fill="#ffffff"></path><g id="SvgjsG1115"><text id="SvgjsText1116" font-family="微软雅黑" text-anchor="middle" font-size="23px" width="69" fill="#323232" font-weight="400" align="middle" anchor="middle" family="微软雅黑" size="23px" weight="400" font-style="" y="2.5500000000000003" transform="rotate(0)"><tspan id="SvgjsTspan1117" dy="28" x="50"><tspan id="SvgjsTspan1118" style="text-decoration:;">随机数</tspan></tspan><tspan id="SvgjsTspan1119" dy="28" x="50"><tspan id="SvgjsTspan1120" style="text-decoration:;">生成器</tspan></tspan></text></g></g><g id="SvgjsG1121" transform="translate(472,333)"><path id="SvgjsPath1122" d="M 0 4Q 0 0 4 0L 144 0Q 148 0 148 4L 148 74Q 148 78 144 78L 4 78Q 0 78 0 74Z" stroke="#323232" stroke-width="2" fill-opacity="1" fill="#ffffff"></path><g id="SvgjsG1123"><text id="SvgjsText1124" font-family="微软雅黑" text-anchor="middle" font-size="23px" width="115" fill="#323232" font-weight="400" align="middle" anchor="middle" family="微软雅黑" size="23px" weight="400" font-style="" y="6.550000000000001" transform="rotate(0)"><tspan id="SvgjsTspan1125" dy="28" x="74"><tspan id="SvgjsTspan1126" style="text-decoration:;">为用户生成</tspan></tspan><tspan id="SvgjsTspan1127" dy="28" x="74"><tspan id="SvgjsTspan1128" style="text-decoration:;">相应卡牌</tspan></tspan></text></g></g><g id="SvgjsG1129"><path id="SvgjsPath1130" d="M442 325L457 325L457 372L472 372" stroke="#323232" stroke-width="2" fill="none" marker-end="url(#SvgjsMarker1131)"></path></g><g id="SvgjsG1133"><path id="SvgjsPath1134" d="M546 305L546 319L546 319L546 333" stroke="#323232" stroke-width="2" fill="none" marker-end="url(#SvgjsMarker1135)"></path></g><g id="SvgjsG1137"><path id="SvgjsPath1138" d="M620 372L642 372L642 125L494 125" stroke="#323232" stroke-width="2" fill="none" marker-end="url(#SvgjsMarker1139)"></path></g><g id="SvgjsG1141"><path id="SvgjsPath1142" d="M514 525L654 525L654 31L430 31L430 61" stroke="#323232" stroke-width="2" fill="none" marker-end="url(#SvgjsMarker1143)"></path></g></svg>