<svg id="SvgjsSvg1006" width="690" height="450" xmlns="http://www.w3.org/2000/svg" version="1.1" xmlns:xlink="http://www.w3.org/1999/xlink" xmlns:svgjs="http://svgjs.com/svgjs"><defs id="SvgjsDefs1007"><pattern id="SvgjsPattern1037" x="0" y="0" width="128" height="128" patternUnits="userSpaceOnUse"><image id="SvgjsImage1038" xlink:href="https://cdn1.processon.com/5eca7c907d9c08156c5f7c01?e=1590332064&amp;token=trhI0BY8QfVrIGn9nENop6JAc6l5nZuxhjQ62UfM:-EtJytOEApTbMCKFh8LwQF6bDg0=" width="128" height="128" preserveAspectRatio="none" crossOrigin="anonymous" x="0" y="0"></image></pattern><marker id="SvgjsMarker1076" markerWidth="16" markerHeight="12" refX="16" refY="6" viewBox="0 0 16 12" orient="auto" markerUnits="userSpaceOnUse"><path id="SvgjsPath1077" d="M0,2 L14,6 L0,11 L0,2" fill="#323232" stroke="#323232" stroke-width="2"></path></marker><marker id="SvgjsMarker1090" markerWidth="16" markerHeight="12" refX="16" refY="6" viewBox="0 0 16 12" orient="auto" markerUnits="userSpaceOnUse"><path id="SvgjsPath1091" d="M0,2 L14,6 L0,11 L0,2" fill="#323232" stroke="#323232" stroke-width="2"></path></marker><marker id="SvgjsMarker1094" markerWidth="16" markerHeight="12" refX="16" refY="6" viewBox="0 0 16 12" orient="auto" markerUnits="userSpaceOnUse"><path id="SvgjsPath1095" d="M0,2 L14,6 L0,11 L0,2" fill="#323232" stroke="#323232" stroke-width="2"></path></marker></defs><g id="SvgjsG1008" transform="translate(25,25)"><path id="SvgjsPath1009" d="M 0 0L 640 0L 640 200L 0 200Z" stroke="#323232" stroke-width="2" fill="none"></path><path id="SvgjsPath1010" d="M 0 0L 40 0L 40 200L 0 200Z" stroke="#323232" stroke-width="2" fill-opacity="1" fill="#ffffff"></path><g id="SvgjsG1011"><text id="SvgjsText1012" font-family="微软雅黑" text-anchor="middle" font-size="16px" width="0" fill="#323232" font-weight="400" align="middle" anchor="middle" family="微软雅黑" size="16px" weight="400" font-style="" y="7.6" transform="rotate(270)"></text></g></g><g id="SvgjsG1013" transform="translate(30,56.5)"><path id="SvgjsPath1014" d="M 0 0L 30 0L 30 137L 0 137Z" stroke="none" fill="none"></path><g id="SvgjsG1015"><text id="SvgjsText1016" font-family="微软雅黑" text-anchor="middle" font-size="27px" width="27" fill="#323232" font-weight="400" align="middle" anchor="middle" family="微软雅黑" size="27px" weight="400" font-style="" y="-3.55" transform="rotate(0)"><tspan id="SvgjsTspan1017" dy="33" x="15"><tspan id="SvgjsTspan1018" style="text-decoration:;">记</tspan></tspan><tspan id="SvgjsTspan1019" dy="33" x="15"><tspan id="SvgjsTspan1020" style="text-decoration:;">录</tspan></tspan><tspan id="SvgjsTspan1021" dy="33" x="15"><tspan id="SvgjsTspan1022" style="text-decoration:;">图</tspan></tspan><tspan id="SvgjsTspan1023" dy="33" x="15"><tspan id="SvgjsTspan1024" style="text-decoration:;">鉴</tspan></tspan></text></g></g><g id="SvgjsG1025" transform="translate(126,70.25)"><path id="SvgjsPath1026" d="M 36.5 0L 117.5 0C 166.16666666666666 0 166.16666666666666 109.5 117.5 109.5L 36.5 109.5C -12.166666666666666 109.5 -12.166666666666666 0 36.5 0Z" stroke="#323232" stroke-width="2" fill-opacity="1" fill="#ffffff"></path><g id="SvgjsG1027"><text id="SvgjsText1028" font-family="微软雅黑" text-anchor="middle" font-size="23px" width="115" fill="#323232" font-weight="400" align="middle" anchor="middle" family="微软雅黑" size="23px" weight="400" font-style="" y="7.800000000000001" transform="rotate(0)"><tspan id="SvgjsTspan1029" dy="28" x="77"><tspan id="SvgjsTspan1030" style="text-decoration:;">建立并维护</tspan></tspan><tspan id="SvgjsTspan1031" dy="28" x="77"><tspan id="SvgjsTspan1032" style="text-decoration:;">链上图鉴用</tspan></tspan><tspan id="SvgjsTspan1033" dy="28" x="77"><tspan id="SvgjsTspan1034" style="text-decoration:;">户数据库</tspan></tspan></text></g></g><g id="SvgjsG1035" transform="translate(366,61)"><path id="SvgjsPath1036" d="M 0 0L 128 0L 128 128L 0 128Z" stroke="none" fill="url(#SvgjsPattern1037)"></path></g><g id="SvgjsG1039" transform="translate(25,225)"><path id="SvgjsPath1040" d="M 0 0L 640 0L 640 200L 0 200Z" stroke="#323232" stroke-width="2" fill="none"></path><path id="SvgjsPath1041" d="M 0 0L 40 0L 40 200L 0 200Z" stroke="#323232" stroke-width="2" fill-opacity="1" fill="#ffffff"></path><g id="SvgjsG1042"><text id="SvgjsText1043" font-family="微软雅黑" text-anchor="middle" font-size="16px" width="0" fill="#323232" font-weight="400" align="middle" anchor="middle" family="微软雅黑" size="16px" weight="400" font-style="" y="7.6" transform="rotate(270)"></text></g></g><g id="SvgjsG1044" transform="translate(30,256.5)"><path id="SvgjsPath1045" d="M 0 0L 30 0L 30 137L 0 137Z" stroke="none" fill="none"></path><g id="SvgjsG1046"><text id="SvgjsText1047" font-family="微软雅黑" text-anchor="middle" font-size="27px" width="27" fill="#323232" font-weight="400" align="middle" anchor="middle" family="微软雅黑" size="27px" weight="400" font-style="" y="-3.55" transform="rotate(0)"><tspan id="SvgjsTspan1048" dy="33" x="15"><tspan id="SvgjsTspan1049" style="text-decoration:;">合</tspan></tspan><tspan id="SvgjsTspan1050" dy="33" x="15"><tspan id="SvgjsTspan1051" style="text-decoration:;">成</tspan></tspan><tspan id="SvgjsTspan1052" dy="33" x="15"><tspan id="SvgjsTspan1053" style="text-decoration:;">卡</tspan></tspan><tspan id="SvgjsTspan1054" dy="33" x="15"><tspan id="SvgjsTspan1055" style="text-decoration:;">牌</tspan></tspan></text></g></g><g id="SvgjsG1056" transform="translate(78,267)"><path id="SvgjsPath1057" d="M 38.666666666666664 0L 102.33333333333334 0C 153.88888888888889 0 153.88888888888889 116 102.33333333333334 116L 38.666666666666664 116C -12.888888888888888 116 -12.888888888888888 0 38.666666666666664 0Z" stroke="#323232" stroke-width="2" fill-opacity="1" fill="#ffffff"></path><g id="SvgjsG1058"><text id="SvgjsText1059" font-family="微软雅黑" text-anchor="middle" font-size="23px" width="115" fill="#323232" font-weight="400" align="middle" anchor="middle" family="微软雅黑" size="23px" weight="400" font-style="" y="25.55" transform="rotate(0)"><tspan id="SvgjsTspan1060" dy="28" x="70.5"><tspan id="SvgjsTspan1061" style="text-decoration:;">用户请求合</tspan></tspan><tspan id="SvgjsTspan1062" dy="28" x="70.5"><tspan id="SvgjsTspan1063" style="text-decoration:;">成卡牌</tspan></tspan></text></g></g><g id="SvgjsG1064" transform="translate(244,275.25)"><path id="SvgjsPath1065" d="M 0 0L 218 0L 218 99.5L 0 99.5Z" stroke="#323232" stroke-width="2" fill-opacity="1" fill="#ffffff"></path><g id="SvgjsG1066"><text id="SvgjsText1067" font-family="微软雅黑" text-anchor="middle" font-size="23px" width="184" fill="#323232" font-weight="400" align="middle" anchor="middle" family="微软雅黑" size="23px" weight="400" font-style="" y="2.8000000000000003" transform="rotate(0)"><tspan id="SvgjsTspan1068" dy="28" x="109"><tspan id="SvgjsTspan1069" style="text-decoration:;">调用卡牌合约，销</tspan></tspan><tspan id="SvgjsTspan1070" dy="28" x="109"><tspan id="SvgjsTspan1071" style="text-decoration:;">毁输入卡牌，生成</tspan></tspan><tspan id="SvgjsTspan1072" dy="28" x="109"><tspan id="SvgjsTspan1073" style="text-decoration:;">输入卡牌</tspan></tspan></text></g></g><g id="SvgjsG1074"><path id="SvgjsPath1075" d="M219 325L231.5 325L231.5 325L244 325" stroke="#323232" stroke-width="2" fill="none" marker-end="url(#SvgjsMarker1076)"></path></g><g id="SvgjsG1078" transform="translate(486,275.25)"><path id="SvgjsPath1079" d="M 0 0L 143 0L 143 99.5L 0 99.5Z" stroke="#323232" stroke-width="2" fill-opacity="1" fill="#ffffff"></path><g id="SvgjsG1080"><text id="SvgjsText1081" font-family="微软雅黑" text-anchor="middle" font-size="23px" width="115" fill="#323232" font-weight="400" align="middle" anchor="middle" family="微软雅黑" size="23px" weight="400" font-style="" y="2.8000000000000003" transform="rotate(0)"><tspan id="SvgjsTspan1082" dy="28" x="71.5"><tspan id="SvgjsTspan1083" style="text-decoration:;">将新和成卡</tspan></tspan><tspan id="SvgjsTspan1084" dy="28" x="71.5"><tspan id="SvgjsTspan1085" style="text-decoration:;">牌的种类记</tspan></tspan><tspan id="SvgjsTspan1086" dy="28" x="71.5"><tspan id="SvgjsTspan1087" style="text-decoration:;">入图鉴</tspan></tspan></text></g></g><g id="SvgjsG1088"><path id="SvgjsPath1089" d="M462 325L474 325L474 325L486 325" stroke="#323232" stroke-width="2" fill="none" marker-end="url(#SvgjsMarker1090)"></path></g><g id="SvgjsG1092"><path id="SvgjsPath1093" d="M629 325L649 325L649 125L494 125" stroke="#323232" stroke-width="2" fill="none" marker-end="url(#SvgjsMarker1094)"></path></g></svg>