<svg id="SvgjsSvg1006" width="690" height="650" xmlns="http://www.w3.org/2000/svg" version="1.1" xmlns:xlink="http://www.w3.org/1999/xlink" xmlns:svgjs="http://svgjs.com/svgjs"><defs id="SvgjsDefs1007"><pattern id="SvgjsPattern1039" x="0" y="0" width="128" height="128" patternUnits="userSpaceOnUse"><image id="SvgjsImage1040" xlink:href="https://cdn1.processon.com/5eca7c907d9c08156c5f7c01?e=1590332064&amp;token=trhI0BY8QfVrIGn9nENop6JAc6l5nZuxhjQ62UfM:-EtJytOEApTbMCKFh8LwQF6bDg0=" width="128" height="128" preserveAspectRatio="none" crossOrigin="anonymous" x="0" y="0"></image></pattern><marker id="SvgjsMarker1082" markerWidth="16" markerHeight="12" refX="16" refY="6" viewBox="0 0 16 12" orient="auto" markerUnits="userSpaceOnUse"><path id="SvgjsPath1083" d="M0,2 L14,6 L0,11 L0,2" fill="#323232" stroke="#323232" stroke-width="2"></path></marker><marker id="SvgjsMarker1086" markerWidth="16" markerHeight="12" refX="16" refY="6" viewBox="0 0 16 12" orient="auto" markerUnits="userSpaceOnUse"><path id="SvgjsPath1087" d="M0,2 L14,6 L0,11 L0,2" fill="#323232" stroke="#323232" stroke-width="2"></path></marker><marker id="SvgjsMarker1123" markerWidth="16" markerHeight="12" refX="16" refY="6" viewBox="0 0 16 12" orient="auto" markerUnits="userSpaceOnUse"><path id="SvgjsPath1124" d="M0,2 L14,6 L0,11 L0,2" fill="#323232" stroke="#323232" stroke-width="2"></path></marker><marker id="SvgjsMarker1127" markerWidth="16" markerHeight="12" refX="16" refY="6" viewBox="0 0 16 12" orient="auto" markerUnits="userSpaceOnUse"><path id="SvgjsPath1128" d="M0,2 L14,6 L0,11 L0,2" fill="#323232" stroke="#323232" stroke-width="2"></path></marker></defs><g id="SvgjsG1008" transform="translate(25,25)"><path id="SvgjsPath1009" d="M 0 0L 640 0L 640 200L 0 200Z" stroke="#323232" stroke-width="2" fill="none"></path><path id="SvgjsPath1010" d="M 0 0L 40 0L 40 200L 0 200Z" stroke="#323232" stroke-width="2" fill-opacity="1" fill="#ffffff"></path><g id="SvgjsG1011"><text id="SvgjsText1012" font-family="微软雅黑" text-anchor="middle" font-size="16px" width="0" fill="#323232" font-weight="400" align="middle" anchor="middle" family="微软雅黑" size="16px" weight="400" font-style="" y="7.6" transform="rotate(270)"></text></g></g><g id="SvgjsG1013" transform="translate(30,56.5)"><path id="SvgjsPath1014" d="M 0 0L 30 0L 30 137L 0 137Z" stroke="none" fill="none"></path><g id="SvgjsG1015"><text id="SvgjsText1016" font-family="微软雅黑" text-anchor="middle" font-size="27px" width="27" fill="#323232" font-weight="400" align="middle" anchor="middle" family="微软雅黑" size="27px" weight="400" font-style="" y="-20.55" transform="rotate(0)"><tspan id="SvgjsTspan1017" dy="33" x="15"><tspan id="SvgjsTspan1018" style="text-decoration:;">记</tspan></tspan><tspan id="SvgjsTspan1019" dy="33" x="15"><tspan id="SvgjsTspan1020" style="text-decoration:;">录</tspan></tspan><tspan id="SvgjsTspan1021" dy="33" x="15"><tspan id="SvgjsTspan1022" style="text-decoration:;">碳</tspan></tspan><tspan id="SvgjsTspan1023" dy="33" x="15"><tspan id="SvgjsTspan1024" style="text-decoration:;">积</tspan></tspan><tspan id="SvgjsTspan1025" dy="33" x="15"><tspan id="SvgjsTspan1026" style="text-decoration:;">分</tspan></tspan></text></g></g><g id="SvgjsG1027" transform="translate(126,70.25)"><path id="SvgjsPath1028" d="M 36.5 0L 117.5 0C 166.16666666666666 0 166.16666666666666 109.5 117.5 109.5L 36.5 109.5C -12.166666666666666 109.5 -12.166666666666666 0 36.5 0Z" stroke="#323232" stroke-width="2" fill-opacity="1" fill="#ffffff"></path><g id="SvgjsG1029"><text id="SvgjsText1030" font-family="微软雅黑" text-anchor="middle" font-size="23px" width="115" fill="#323232" font-weight="400" align="middle" anchor="middle" family="微软雅黑" size="23px" weight="400" font-style="" y="7.800000000000001" transform="rotate(0)"><tspan id="SvgjsTspan1031" dy="28" x="77"><tspan id="SvgjsTspan1032" style="text-decoration:;">建立并维护</tspan></tspan><tspan id="SvgjsTspan1033" dy="28" x="77"><tspan id="SvgjsTspan1034" style="text-decoration:;">链上碳积分</tspan></tspan><tspan id="SvgjsTspan1035" dy="28" x="77"><tspan id="SvgjsTspan1036" style="text-decoration:;">用户数据库</tspan></tspan></text></g></g><g id="SvgjsG1037" transform="translate(366,61)"><path id="SvgjsPath1038" d="M 0 0L 128 0L 128 128L 0 128Z" stroke="none" fill="url(#SvgjsPattern1039)"></path></g><g id="SvgjsG1041" transform="translate(25,225)"><path id="SvgjsPath1042" d="M 0 0L 640 0L 640 200L 0 200Z" stroke="#323232" stroke-width="2" fill="none"></path><path id="SvgjsPath1043" d="M 0 0L 40 0L 40 200L 0 200Z" stroke="#323232" stroke-width="2" fill-opacity="1" fill="#ffffff"></path><g id="SvgjsG1044"><text id="SvgjsText1045" font-family="微软雅黑" text-anchor="middle" font-size="16px" width="0" fill="#323232" font-weight="400" align="middle" anchor="middle" family="微软雅黑" size="16px" weight="400" font-style="" y="7.6" transform="rotate(270)"></text></g></g><g id="SvgjsG1046" transform="translate(30,256.5)"><path id="SvgjsPath1047" d="M 0 0L 30 0L 30 137L 0 137Z" stroke="none" fill="none"></path><g id="SvgjsG1048"><text id="SvgjsText1049" font-family="微软雅黑" text-anchor="middle" font-size="27px" width="27" fill="#323232" font-weight="400" align="middle" anchor="middle" family="微软雅黑" size="27px" weight="400" font-style="" y="-20.55" transform="rotate(0)"><tspan id="SvgjsTspan1050" dy="33" x="15"><tspan id="SvgjsTspan1051" style="text-decoration:;">发</tspan></tspan><tspan id="SvgjsTspan1052" dy="33" x="15"><tspan id="SvgjsTspan1053" style="text-decoration:;">放</tspan></tspan><tspan id="SvgjsTspan1054" dy="33" x="15"><tspan id="SvgjsTspan1055" style="text-decoration:;">碳</tspan></tspan><tspan id="SvgjsTspan1056" dy="33" x="15"><tspan id="SvgjsTspan1057" style="text-decoration:;">积</tspan></tspan><tspan id="SvgjsTspan1058" dy="33" x="15"><tspan id="SvgjsTspan1059" style="text-decoration:;">分</tspan></tspan></text></g></g><g id="SvgjsG1060" transform="translate(78,267)"><path id="SvgjsPath1061" d="M 38.666666666666664 0L 143.33333333333334 0C 194.88888888888889 0 194.88888888888889 116 143.33333333333334 116L 38.666666666666664 116C -12.888888888888888 116 -12.888888888888888 0 38.666666666666664 0Z" stroke="#323232" stroke-width="2" fill-opacity="1" fill="#ffffff"></path><g id="SvgjsG1062"><text id="SvgjsText1063" font-family="微软雅黑" text-anchor="middle" font-size="23px" width="161" fill="#323232" font-weight="400" align="middle" anchor="middle" family="微软雅黑" size="23px" weight="400" font-style="" y="11.05" transform="rotate(0)"><tspan id="SvgjsTspan1064" dy="28" x="91"><tspan id="SvgjsTspan1065" style="text-decoration:;">八维通用户数据</tspan></tspan><tspan id="SvgjsTspan1066" dy="28" x="91"><tspan id="SvgjsTspan1067" style="text-decoration:;">（符合条件的环</tspan></tspan><tspan id="SvgjsTspan1068" dy="28" x="91"><tspan id="SvgjsTspan1069" style="text-decoration:;">保出行行为）</tspan></tspan></text></g></g><g id="SvgjsG1070" transform="translate(281,275.25)"><path id="SvgjsPath1071" d="M 0 0L 128 0L 128 99.5L 0 99.5Z" stroke="#323232" stroke-width="2" fill-opacity="1" fill="#ffffff"></path><g id="SvgjsG1072"><text id="SvgjsText1073" font-family="微软雅黑" text-anchor="middle" font-size="23px" width="92" fill="#323232" font-weight="400" align="middle" anchor="middle" family="微软雅黑" size="23px" weight="400" font-style="" y="2.8000000000000003" transform="rotate(0)"><tspan id="SvgjsTspan1074" dy="28" x="64"><tspan id="SvgjsTspan1075" style="text-decoration:;">计算并发</tspan></tspan><tspan id="SvgjsTspan1076" dy="28" x="64"><tspan id="SvgjsTspan1077" style="text-decoration:;">放相应的</tspan></tspan><tspan id="SvgjsTspan1078" dy="28" x="64"><tspan id="SvgjsTspan1079" style="text-decoration:;">谈积分</tspan></tspan></text></g></g><g id="SvgjsG1080"><path id="SvgjsPath1081" d="M409 325L430 325L430 189" stroke="#323232" stroke-width="2" fill="none" marker-end="url(#SvgjsMarker1082)"></path></g><g id="SvgjsG1084"><path id="SvgjsPath1085" d="M260 325L270.5 325L270.5 325L281 325" stroke="#323232" stroke-width="2" fill="none" marker-end="url(#SvgjsMarker1086)"></path></g><g id="SvgjsG1088" transform="translate(25,425)"><path id="SvgjsPath1089" d="M 0 0L 640 0L 640 200L 0 200Z" stroke="#323232" stroke-width="2" fill="none"></path><path id="SvgjsPath1090" d="M 0 0L 40 0L 40 200L 0 200Z" stroke="#323232" stroke-width="2" fill-opacity="1" fill="#ffffff"></path><g id="SvgjsG1091"><text id="SvgjsText1092" font-family="微软雅黑" text-anchor="middle" font-size="16px" width="0" fill="#323232" font-weight="400" align="middle" anchor="middle" family="微软雅黑" size="16px" weight="400" font-style="" y="7.6" transform="rotate(270)"></text></g></g><g id="SvgjsG1093" transform="translate(30,456.5)"><path id="SvgjsPath1094" d="M 0 0L 30 0L 30 137L 0 137Z" stroke="none" fill="none"></path><g id="SvgjsG1095"><text id="SvgjsText1096" font-family="微软雅黑" text-anchor="middle" font-size="27px" width="27" fill="#323232" font-weight="400" align="middle" anchor="middle" family="微软雅黑" size="27px" weight="400" font-style="" y="-20.55" transform="rotate(0)"><tspan id="SvgjsTspan1097" dy="33" x="15"><tspan id="SvgjsTspan1098" style="text-decoration:;">碳</tspan></tspan><tspan id="SvgjsTspan1099" dy="33" x="15"><tspan id="SvgjsTspan1100" style="text-decoration:;">积</tspan></tspan><tspan id="SvgjsTspan1101" dy="33" x="15"><tspan id="SvgjsTspan1102" style="text-decoration:;">分</tspan></tspan><tspan id="SvgjsTspan1103" dy="33" x="15"><tspan id="SvgjsTspan1104" style="text-decoration:;">转</tspan></tspan><tspan id="SvgjsTspan1105" dy="33" x="15"><tspan id="SvgjsTspan1106" style="text-decoration:;">账</tspan></tspan></text></g></g><g id="SvgjsG1107" transform="translate(92,470.25)"><path id="SvgjsPath1108" d="M 36.5 0L 117.5 0C 166.16666666666666 0 166.16666666666666 109.5 117.5 109.5L 36.5 109.5C -12.166666666666666 109.5 -12.166666666666666 0 36.5 0Z" stroke="#323232" stroke-width="2" fill-opacity="1" fill="#ffffff"></path><g id="SvgjsG1109"><text id="SvgjsText1110" font-family="微软雅黑" text-anchor="middle" font-size="23px" width="92" fill="#323232" font-weight="400" align="middle" anchor="middle" family="微软雅黑" size="23px" weight="400" font-style="" y="36.8" transform="rotate(0)"><tspan id="SvgjsTspan1111" dy="28" x="77"><tspan id="SvgjsTspan1112" style="text-decoration:;">内部调用</tspan></tspan></text></g></g><g id="SvgjsG1113" transform="translate(295,477.5)"><path id="SvgjsPath1114" d="M 0 0L 219 0L 219 95L 0 95Z" stroke="#323232" stroke-width="2" fill-opacity="1" fill="#ffffff"></path><g id="SvgjsG1115"><text id="SvgjsText1116" font-family="微软雅黑" text-anchor="middle" font-size="23px" width="184" fill="#323232" font-weight="400" align="middle" anchor="middle" family="微软雅黑" size="23px" weight="400" font-style="" y="15.05" transform="rotate(0)"><tspan id="SvgjsTspan1117" dy="28" x="109.5"><tspan id="SvgjsTspan1118" style="text-decoration:;">向指定用户转账碳</tspan></tspan><tspan id="SvgjsTspan1119" dy="28" x="109.5"><tspan id="SvgjsTspan1120" style="text-decoration:;">积分或销毁碳积分</tspan></tspan></text></g></g><g id="SvgjsG1121"><path id="SvgjsPath1122" d="M246 525L270.5 525L270.5 525L295 525" stroke="#323232" stroke-width="2" fill="none" marker-end="url(#SvgjsMarker1123)"></path></g><g id="SvgjsG1125"><path id="SvgjsPath1126" d="M514 525L544 525L544 125L494 125" stroke="#323232" stroke-width="2" fill="none" marker-end="url(#SvgjsMarker1127)"></path></g></svg>